FILE "King of Fighters '96, The - Neo-Geo Collection (1997)(SNK)(JP)[h].img" BINARY
  TRACK 01 MODE1/2352
    FLAGS DCP
    INDEX 01 00:00:00
  TRACK 02 AUDIO
    PREGAP 00:02:00
    FLAGS DCP
    INDEX 00 08:28:71
    INDEX 01 08:29:71
  TRACK 03 AUDIO
    FLAGS DCP
    INDEX 01 09:15:72
  TRACK 04 AUDIO
    FLAGS DCP
    INDEX 01 11:25:73
  TRACK 05 AUDIO
    FLAGS DCP
    INDEX 01 12:03:60
  TRACK 06 AUDIO
    FLAGS DCP
    INDEX 01 14:13:60
  TRACK 07 AUDIO
    FLAGS DCP
    INDEX 01 14:56:21
  TRACK 08 AUDIO
    FLAGS DCP
    INDEX 01 17:06:21
  TRACK 09 AUDIO
    FLAGS DCP
    INDEX 01 17:48:32
  TRACK 10 AUDIO
    FLAGS DCP
    INDEX 01 18:27:31
  TRACK 11 AUDIO
    FLAGS DCP
    INDEX 01 20:37:32
  TRACK 12 AUDIO
    FLAGS DCP
    INDEX 01 21:09:53
  TRACK 13 AUDIO
    FLAGS DCP
    INDEX 01 23:20:17
  TRACK 14 AUDIO
    FLAGS DCP
    INDEX 01 24:15:46
  TRACK 15 AUDIO
    FLAGS DCP
    INDEX 01 26:25:50
  TRACK 16 AUDIO
    FLAGS DCP
    INDEX 01 27:06:52
  TRACK 17 AUDIO
    FLAGS DCP
    INDEX 01 28:03:60
  TRACK 18 AUDIO
    FLAGS DCP
    INDEX 01 28:21:00
  TRACK 19 AUDIO
    FLAGS DCP
    INDEX 01 29:02:12
  TRACK 20 AUDIO
    FLAGS DCP
    INDEX 01 29:38:66
  TRACK 21 AUDIO
    FLAGS DCP
    INDEX 01 31:48:66
  TRACK 22 AUDIO
    FLAGS DCP
    INDEX 01 32:26:74
  TRACK 23 AUDIO
    FLAGS DCP
    INDEX 01 34:37:03
  TRACK 24 AUDIO
    FLAGS DCP
    INDEX 01 35:21:25
  TRACK 25 AUDIO
    FLAGS DCP
    INDEX 01 37:31:27
  TRACK 26 AUDIO
    FLAGS DCP
    INDEX 01 38:05:53
  TRACK 27 AUDIO
    FLAGS DCP
    INDEX 01 40:15:54
  TRACK 28 AUDIO
    FLAGS DCP
    INDEX 01 41:05:02
  TRACK 29 AUDIO
    FLAGS DCP
    INDEX 01 43:21:74
  TRACK 30 AUDIO
    FLAGS DCP
    INDEX 01 44:16:69
  TRACK 31 AUDIO
    FLAGS DCP
    INDEX 01 48:05:44
  TRACK 32 AUDIO
    FLAGS DCP
    INDEX 01 48:31:57
  TRACK 33 AUDIO
    FLAGS DCP
    INDEX 01 50:52:64
  TRACK 34 AUDIO
    FLAGS DCP
    INDEX 01 51:16:06
  TRACK 35 AUDIO
    FLAGS DCP
    INDEX 01 52:05:66
  TRACK 36 AUDIO
    FLAGS DCP
    INDEX 01 54:15:66
  TRACK 37 AUDIO
    FLAGS DCP
    INDEX 01 54:51:49
  TRACK 38 AUDIO
    FLAGS DCP
    INDEX 01 55:50:05
  TRACK 39 AUDIO
    FLAGS DCP
    INDEX 01 57:25:56
  TRACK 40 AUDIO
    FLAGS DCP
    INDEX 01 58:37:43
  TRACK 41 AUDIO
    FLAGS DCP
    INDEX 01 59:58:51
  TRACK 42 AUDIO
    FLAGS DCP
    INDEX 01 62:05:21
  TRACK 43 AUDIO
    FLAGS DCP
    INDEX 01 64:23:40
  TRACK 44 AUDIO
    FLAGS DCP
    INDEX 01 65:39:63
  TRACK 45 AUDIO
    FLAGS DCP
    INDEX 01 66:11:47
  TRACK 46 AUDIO
    FLAGS DCP
    INDEX 01 66:49:68
  TRACK 47 AUDIO
    FLAGS DCP
    INDEX 01 67:42:68
  TRACK 48 AUDIO
    FLAGS DCP
    INDEX 01 68:15:34
  TRACK 49 AUDIO
    FLAGS DCP
    INDEX 01 68:59:63
  TRACK 50 AUDIO
    FLAGS DCP
    INDEX 01 69:44:29
  TRACK 51 AUDIO
    FLAGS DCP
    INDEX 01 70:28:21
